<svg viewBox="0 0 24 24" fill="none" xmlns="http://www.w3.org/2000/svg"><g id="SVGRepo_bgCarrier" stroke-width="0"></g><g id="SVGRepo_tracerCarrier" stroke-linecap="round" stroke-linejoin="round"></g><g id="SVGRepo_iconCarrier"> <path d="M18.7069 7.79289C19.0974 8.18342 19.0974 8.81658 18.7069 9.20711L15.914 12L18.7069 14.7929C19.0974 15.1834 19.0974 15.8166 18.7069 16.2071C18.3163 16.5976 17.6832 16.5976 17.2926 16.2071L14.4998 13.4142L11.7069 16.2071C11.3163 16.5976 10.6832 16.5976 10.2926 16.2071C9.90212 15.8166 9.90212 15.1834 10.2926 14.7929L13.0855 12L10.2926 9.20711C9.90212 8.81658 9.90212 8.18342 10.2926 7.79289C10.6832 7.40237 11.3163 7.40237 11.7069 7.79289L14.4998 10.5858L17.2926 7.79289C17.6832 7.40237 18.3163 7.40237 18.7069 7.79289Z" fill="#969292"></path> <path fill-rule="evenodd" clip-rule="evenodd" d="M6.30958 3.54424C7.06741 2.56989 8.23263 2 9.46699 2H20.9997C21.8359 2 22.6103 2.37473 23.1614 2.99465C23.709 3.61073 23.9997 4.42358 23.9997 5.25V18.75C23.9997 19.5764 23.709 20.3893 23.1614 21.0054C22.6103 21.6253 21.8359 22 20.9997 22H9.46699C8.23263 22 7.06741 21.4301 6.30958 20.4558L0.687897 13.2279C0.126171 12.5057 0.126169 11.4943 0.687897 10.7721L6.30958 3.54424ZM9.46699 4C8.84981 4 8.2672 4.28495 7.88829 4.77212L2.2666 12L7.88829 19.2279C8.2672 19.7151 8.84981 20 9.46699 20H20.9997C21.2244 20 21.4674 19.9006 21.6665 19.6766C21.8691 19.4488 21.9997 19.1171 21.9997 18.75V5.25C21.9997 4.88294 21.8691 4.5512 21.6665 4.32337C21.4674 4.09938 21.2244 4 20.9997 4H9.46699Z" fill="#969292"></path> </g></svg>